<svg width="173" height="118" viewBox="0 0 173 118" fill="none" xmlns="http://www.w3.org/2000/svg">
<g filter="url(#filter0_d_2_2)">
<path d="M4.51562 59.8164H12.543L21.625 93.6836V103.234H17.9336L4.51562 59.8164ZM33.168 59.8164H41.1367L27.0742 103.234H24.0273V91.8086L33.168 59.8164ZM82.9141 59.8164V103H75.8828V83.5469H59.5938V78.7422H75.8828V59.8164H82.9141ZM50.043 59.8164H57.1914V103H50.043V59.8164ZM92.9336 81.2031C92.9336 77.7266 93.3438 74.6602 94.1641 72.0039C95.0234 69.3086 96.1953 67.043 97.6797 65.207C99.2031 63.332 100.98 61.9062 103.012 60.9297C105.082 59.9141 107.328 59.3281 109.75 59.1719V65.0312C108.422 65.1875 107.172 65.5977 106 66.2617C104.828 66.9258 103.812 67.9023 102.953 69.1914C102.094 70.4805 101.41 72.1211 100.902 74.1133C100.395 76.1055 100.121 78.4688 100.082 81.2031C100.121 83.9766 100.395 86.3594 100.902 88.3516C101.41 90.3047 102.094 91.9453 102.953 93.2734C103.852 94.6016 104.887 95.6172 106.059 96.3203C107.23 96.9844 108.461 97.375 109.75 97.4922V103.293C107.367 103.137 105.141 102.57 103.07 101.594C101 100.578 99.2031 99.1523 97.6797 97.3164C96.1953 95.4414 95.0234 93.1562 94.1641 90.4609C93.3438 87.7656 92.9336 84.6797 92.9336 81.2031ZM112.094 59.1719C114.477 59.2891 116.684 59.8555 118.715 60.8711C120.785 61.8867 122.562 63.332 124.047 65.207C125.57 67.043 126.762 69.3086 127.621 72.0039C128.48 74.6602 128.91 77.7266 128.91 81.2031C128.91 84.6797 128.48 87.7656 127.621 90.4609C126.762 93.1562 125.57 95.4414 124.047 97.3164C122.562 99.1523 120.805 100.578 118.773 101.594C116.742 102.57 114.516 103.137 112.094 103.293V97.4922C113.422 97.3359 114.672 96.9258 115.844 96.2617C117.016 95.5586 118.031 94.5625 118.891 93.2734C119.75 91.9453 120.434 90.3047 120.941 88.3516C121.449 86.3594 121.723 83.9766 121.762 81.2031C121.723 78.4297 121.449 76.0664 120.941 74.1133C120.434 72.1211 119.73 70.4805 118.832 69.1914C117.973 67.8633 116.957 66.8672 115.785 66.2031C114.613 65.5 113.383 65.0898 112.094 64.9727V59.1719ZM163.188 68.1367C162.289 67.1211 161.332 66.3594 160.316 65.8516C159.301 65.3438 158.207 65.0508 157.035 64.9727V59.1719C161.41 59.3672 165.082 60.9102 168.051 63.8008L163.188 68.1367ZM157.035 97.4922C158.207 97.375 159.301 97.0625 160.316 96.5547C161.371 96.0469 162.328 95.3047 163.188 94.3281L168.051 98.6055C166.566 100.051 164.906 101.164 163.07 101.945C161.234 102.727 159.223 103.176 157.035 103.293V97.4922ZM138.051 81.2031C138.051 77.7266 138.461 74.6602 139.281 72.0039C140.141 69.3477 141.312 67.1016 142.797 65.2656C144.281 63.4297 146.02 62.0039 148.012 60.9883C150.043 59.9727 152.25 59.3672 154.633 59.1719V65.0312C153.344 65.2266 152.133 65.6758 151 66.3789C149.867 67.043 148.871 68.0195 148.012 69.3086C147.152 70.5977 146.469 72.2383 145.961 74.2305C145.492 76.1836 145.238 78.5078 145.199 81.2031C145.238 83.9375 145.492 86.2812 145.961 88.2344C146.469 90.1875 147.152 91.8281 148.012 93.1562C148.871 94.4844 149.867 95.5 151 96.2031C152.172 96.9062 153.383 97.3359 154.633 97.4922V103.234C152.25 103.078 150.043 102.492 148.012 101.477C146.02 100.461 144.281 99.0352 142.797 97.1992C141.312 95.3633 140.141 93.1172 139.281 90.4609C138.461 87.7656 138.051 84.6797 138.051 81.2031Z" fill="#8CB841"/>
<g filter="url(#filter1_d_2_2)">
<path d="M90.563 14.5496L80.9659 28.2789L71.3688 14.5496H56.0318L80.9659 50.2191L105.9 14.5496H90.563Z" fill="#313B44"/>
<path d="M113.04 14.5496L103.443 28.2789L93.8461 14.5496H61.8864L103.443 74L145 14.5496H113.04Z" fill="#8CB841"/>
<path d="M113.04 14.5496L103.443 28.2789L93.8461 14.5496H78.5091L103.443 50.2191L128.377 14.5496H113.04Z" fill="#313B44"/>
<path d="M113.04 14.5496L103.443 28.2789L93.8461 14.5496H78.5091L103.443 50.2191L128.377 14.5496H113.04Z" fill="#313B44"/>
<g filter="url(#filter2_d_2_2)">
<path d="M81.1539 8L71.5568 21.7293L61.9597 8H30L71.5568 67.4504L113.114 8H81.1539Z" fill="#8CB841"/>
</g>
<path d="M81.1539 8L71.5568 21.7293L61.9597 8H46.6227L71.5568 43.6695L96.4909 8H81.1539Z" fill="#313B44"/>
</g>
</g>
<defs>
<filter id="filter0_d_2_2" x="0.515625" y="0" width="171.535" height="126" filterUnits="userSpaceOnUse" color-interpolation-filters="sRGB">
<feFlood flood-opacity="0" result="BackgroundImageFix"/>
<feColorMatrix in="SourceAlpha" type="matrix" values="0 0 0 0 0 0 0 0 0 0 0 0 0 0 0 0 0 0 127 0" result="hardAlpha"/>
<feOffset dy="4"/>
<feGaussianBlur stdDeviation="2"/>
<feComposite in2="hardAlpha" operator="out"/>
<feColorMatrix type="matrix" values="0 0 0 0 0 0 0 0 0 0 0 0 0 0 0 0 0 0 0.25 0"/>
<feBlend mode="normal" in2="BackgroundImageFix" result="effect1_dropShadow_2_2"/>
<feBlend mode="normal" in="SourceGraphic" in2="effect1_dropShadow_2_2" result="shape"/>
</filter>
<filter id="filter1_d_2_2" x="26" y="8" width="123" height="74" filterUnits="userSpaceOnUse" color-interpolation-filters="sRGB">
<feFlood flood-opacity="0" result="BackgroundImageFix"/>
<feColorMatrix in="SourceAlpha" type="matrix" values="0 0 0 0 0 0 0 0 0 0 0 0 0 0 0 0 0 0 127 0" result="hardAlpha"/>
<feOffset dy="4"/>
<feGaussianBlur stdDeviation="2"/>
<feComposite in2="hardAlpha" operator="out"/>
<feColorMatrix type="matrix" values="0 0 0 0 0 0 0 0 0 0 0 0 0 0 0 0 0 0 0.25 0"/>
<feBlend mode="normal" in2="BackgroundImageFix" result="effect1_dropShadow_2_2"/>
<feBlend mode="normal" in="SourceGraphic" in2="effect1_dropShadow_2_2" result="shape"/>
</filter>
<filter id="filter2_d_2_2" x="26" y="8" width="91.1136" height="67.4504" filterUnits="userSpaceOnUse" color-interpolation-filters="sRGB">
<feFlood flood-opacity="0" result="BackgroundImageFix"/>
<feColorMatrix in="SourceAlpha" type="matrix" values="0 0 0 0 0 0 0 0 0 0 0 0 0 0 0 0 0 0 127 0" result="hardAlpha"/>
<feOffset dy="4"/>
<feGaussianBlur stdDeviation="2"/>
<feComposite in2="hardAlpha" operator="out"/>
<feColorMatrix type="matrix" values="0 0 0 0 0 0 0 0 0 0 0 0 0 0 0 0 0 0 0.25 0"/>
<feBlend mode="normal" in2="BackgroundImageFix" result="effect1_dropShadow_2_2"/>
<feBlend mode="normal" in="SourceGraphic" in2="effect1_dropShadow_2_2" result="shape"/>
</filter>
</defs>
</svg>
